  <!-- SVGS -->
  <svg class="hidden" xmlns="http://www.w3.org/2000/svg">
    <symbol id="shapeLogo" viewBox="0 184 140 31.8">
      <g>
        <path class="st0" d="M14.9,193.1c-0.4,1.4-1.9,2.4-3.3,2.2c-0.4,0-0.8-0.2-1.2-0.2c-1.1,0-2.5,0.6-2.5,1.9c0,2.5,7.1,0.9,7.1,6.6
          c0,3.6-3.3,5.1-6.6,5.1c-1.6,0-3.7-0.3-5.2-0.7l0.1-0.2c0.4-1.6,2-2.6,3.5-2.3c0.5,0.1,0.9,0.3,1.4,0.3c1.1,0,2.8-0.6,2.8-2.1
          c0-3.1-7.1-1-7.1-6.7c0-3.4,3-4.9,6.2-4.9c2,0,3.8,0.3,5,0.6L14.9,193.1z"/>
        <path class="st0" d="M17.6,193.5c1.6-0.8,4.3-1.2,6.1-1.2c4.8,0,6.8,2,6.8,6.6v2.1c0,1.6,0,2.8,0.1,3.9c0,1.2,0.1,2.3,0.2,3.5h-1.4
          c-1.3,0-2.5-0.9-2.5-2.2l0.3-0.4l-0.3,0.3c-1,1.8-3,2.8-4.8,2.8c-2.8,0-5.5-1.7-5.5-4.7c0-2.4,1.1-3.7,2.8-4.4
          c1.6-0.8,3.5-0.9,5.2-0.9h2.3c0-2.6-1.1-3.5-3.5-3.5c-0.7,0-1.4,0.3-2.2,0.5c-1.6,0.5-3.2-0.5-3.5-2.1L17.6,193.5L17.6,193.5z
           M23,205.7c1.3,0,2.2-0.6,2.9-1.4c0.7-0.8,1.1-1.2,0.9-3.3h-3.4c-1.9,0-3.1,0.3-3.1,2.8C20.3,205.1,21.5,205.7,23,205.7z"/>
        <path class="st0" d="M34.6,192.6c1.2,0,2.2,0.8,2.2,2.1l-0.3,0.4l0.3-0.3c1.3-2,3.2-2.6,4.6-2.6c2.2,0,3.7,0.8,4.6,2.8
          c1-1.9,3-2.8,4.9-2.8c3.8,0,4.9,2.7,4.9,6.2v10h-1.2c-1.7,0-3.1-1.4-3.1-3.1V199c0-1.5,0-3.5-2.4-3.5c-2.8,0-3.1,3.3-3.1,5.2v7.7
          h-0.9c-1.7,0-3.1-1.4-3.1-3.1V199c0-1.5,0-3.5-2.4-3.5c-2.8,0-3.1,3.3-3.1,5.2v7.7h-1.1c-1.7,0-3.1-1.4-3.1-3.1v-12.7L34.6,192.6
          L34.6,192.6L34.6,192.6z"/>
        <path class="st0" d="M57.4,192.6h1.7c1.2,0,2.2,0.8,2.2,2.1l-0.3,0.4l0.3-0.3c0.9-1.6,2.5-2.7,4.9-2.7c4.8,0,6.6,3.8,6.6,8.2
          c0,4.3-1.8,8.3-6.7,8.3c-1.8,0-3.2-0.4-4.6-2.2h-0.1v8.2h-1c-1.7,0-3.1-1.4-3.1-3.1L57.4,192.6L57.4,192.6L57.4,192.6L57.4,192.6z
           M61.4,200.5c0,2.3,0.9,5.1,3.6,5.1c2.8,0,3.5-3,3.5-5.1c0-2.2-0.8-5-3.4-5S61.4,198.2,61.4,200.5z"/>
        <path class="st0" d="M88.5,207.5c-1.5,0.8-3.8,1.3-6,1.3c-5.2,0-8.2-3-8.2-8.2c0-4.5,2.5-8.3,7.3-8.3c5.8,0,7.5,4,7.5,9.6H78.2
          c0.2,2.6,2,4.1,4.4,4.1c0.9,0,1.7-0.3,2.5-0.5C86.6,204.9,88.2,205.9,88.5,207.5L88.5,207.5z M85.2,198.9c-0.1-2-1.1-3.7-3.4-3.7
          s-3.5,1.6-3.6,3.7H85.2z"/>
        <path class="st0" d="M102.5,205.2l-0.3,0.2c-0.5,1.6-2.4,3.3-5,3.3c-4.8,0-6.6-3.9-6.6-8.3s1.8-8.2,6.6-8.2c2.1,0,3.5,0.7,4.7,2.2
          h0.1v-9h1.1c1.7,0,3.1,1.4,3.1,3.1v19.9h-1.1c-0.3,0-2.1-0.4-2.6-2.2C102.3,205.9,102.3,205.5,102.5,205.2L102.5,205.2z
           M98.4,205.5c2.8,0,3.6-2.9,3.6-5.1c0-2.2-1.1-5-3.6-5c-2.7,0-3.4,3-3.4,5C94.8,202.6,95.6,205.5,98.4,205.5z"/>
        <path class="st0" d="M107.8,192.6h0.7c1.6,0,3,1.4,3,3v0.3l-0.3,0.6l0.3-0.3c0.2-1.5,1.9-3.9,4.3-3.9c0.4,0,1.4,0,1.9,0.1l-0.8,3.2
          c-0.2,0.8-0.9,1.3-1.6,1.2l0,0c-3.4,0-3.4,3.5-3.4,5.8v5.8h-0.7c-1.9,0-3.5-1.6-3.5-3.5L107.8,192.6L107.8,192.6L107.8,192.6
          L107.8,192.6z"/>
        <path class="st0" d="M125.6,192.2c4.6,0,7.5,3.2,7.5,8.3c0,4.5-2.3,8.1-7.5,8.1s-7.4-3.6-7.4-8.1
          C118.1,195.4,120.9,192.2,125.6,192.2z M125.6,205.5c3.2,0,3.3-2.9,3.3-5.4s-0.5-4.6-3.3-4.6s-3.2,2.4-3.2,4.6
          C122.4,202.7,122.4,205.5,125.6,205.5z"/>
        <path class="st0" d="M134.8,187.8c1.2,0,2.2,1,2.2,2.2s-1,2.2-2.2,2.2s-2.2-1-2.2-2.2S133.6,187.8,134.8,187.8z M134.8,191.7
          c0.9,0,1.6-0.7,1.6-1.7s-0.7-1.7-1.6-1.7s-1.6,0.7-1.6,1.7S133.9,191.7,134.8,191.7z M135.9,190.3c-0.1,0.6-0.5,0.9-1,0.9
          c-0.8,0-1.2-0.6-1.2-1.3c0-0.8,0.4-1.3,1.2-1.3c0.5,0,1,0.3,1.1,0.9h-0.4c-0.1-0.3-0.3-0.5-0.6-0.5c-0.5,0-0.8,0.4-0.8,0.9
          s0.3,0.9,0.8,0.9c0.3,0,0.6-0.2,0.6-0.5H135.9L135.9,190.3z"/>
      </g>
    </symbol>

    <symbol id="shapeMobile" viewBox="283.6 398.9 28 44">
      <g>
        <g>
          <path class="st0" d="M306.7,400.2h-18.2c-2.1,0-3.9,1.7-3.9,3.9v33.8c0,2.1,1.7,3.9,3.9,3.9h18.2c2.1,0,3.9-1.7,3.9-3.9v-33.8
            C310.6,401.9,308.9,400.2,306.7,400.2z M309.3,437.3c0,1.8-1.4,3.3-3.3,3.3h-16.9c-1.8,0-3.3-1.4-3.3-3.3v-32.5
            c0-1.8,1.4-3.3,3.3-3.3h16.9c1.8,0,3.3,1.4,3.3,3.3L309.3,437.3L309.3,437.3z"/>
        </g>
        <rect x="285.9" y="431.4" class="st0" width="23.4" height="1.3"/>
        <circle class="st0" cx="297.6" cy="436.6" r="1.3"/>
      </g>
    </symbol>

    <symbol id="shapeMail" viewBox="275.6 404.2 44 33.5">
      <g>
        <path class="st0" d="M318.6,408.6c0-0.5-0.1-0.9-0.4-1.4c-0.2-0.4-0.4-0.8-0.8-1.1c-0.7-0.7-1.5-1.1-2.4-1.2c-0.1,0-0.2,0-0.4,0
          h-17h-17c-0.1,0-0.2,0-0.4,0c-0.9,0.1-1.8,0.5-2.4,1.2c-0.3,0.3-0.6,0.7-0.8,1.1c-0.2,0.4-0.4,0.9-0.4,1.4c0,0.1,0,0.2,0,0.4v7.9
          v9.2v6.5c0,0.1,0,0.2,0,0.4c0.1,1.9,1.7,3.5,3.6,3.6c0.1,0,0.2,0,0.4,0h1.6h0.4h1.2h13.9h13.9h1.2h0.4h1.6c0.1,0,0.2,0,0.4,0
          c1.9-0.1,3.5-1.7,3.6-3.6c0-0.1,0-0.2,0-0.4V426v-9.2v-7.8C318.7,408.8,318.7,408.7,318.6,408.6z M281.3,406.3c0.1,0,0.2,0,0.4,0
          c0.1,0,0.2,0,0.4,0h0.7h15.1h15.1h0.7c0.1,0,0.2,0,0.4,0c0.1,0,0.2,0,0.4,0c0.9,0,1.7,0.4,2.3,0.9l-15,14.9l-0.4,0.4l-0.4,0.4
          c-0.1,0.1-0.1,0.1-0.3,0.2l0,0c0,0.1-0.1,0.1-0.2,0.3c-0.1,0.1-0.2,0.2-0.3,0.3c0,0,0,0-0.1,0c-0.1,0-0.1,0.1-0.3,0.1l0,0
          c-0.3,0.1-0.5,0.3-0.8,0.3l0,0c-0.3,0.1-0.7,0.1-1,0.1c-0.4,0-0.7,0-1-0.1l0,0c-0.3,0-0.5-0.1-0.8-0.3l0,0c-0.1,0-0.1-0.1-0.3-0.1
          c0,0,0,0-0.1,0c-0.1-0.1-0.2-0.1-0.3-0.3c-0.1-0.1-0.1-0.1-0.2-0.3l0,0c-0.1,0-0.1-0.1-0.3-0.2l-0.4-0.4l-0.4-0.4l-15-14.9
          C279.5,406.7,280.4,406.3,281.3,406.3z M317.4,410.2v0.7v5.9v9.2v4.6v0.7c0,0.1,0,0.2,0,0.4c0,0.1,0,0.2,0,0.4
          c0,1.8-1.5,3.3-3.3,3.3c-0.1,0-0.2,0-0.4,0h-1.4h-1.5h-26.3H283l0,0h-0.4h-0.4h-0.3c-0.1,0-0.2,0-0.4,0c-0.1,0-0.2,0-0.4,0
          c-1.8,0-3.3-1.5-3.3-3.3c0-0.1,0-0.2,0-0.4c0-0.1,0-0.2,0-0.4v-0.7V426v-9.2v-5.9v-0.7c0-0.1,0-0.2,0-0.4c0-0.1,0-0.2,0-0.4
          c0-0.4,0.1-0.8,0.3-1.2l16.5,16.5c0.1,0.1,0.1,0.1,0.3,0.2c0.7,0.5,1.5,0.8,2.3,0.9l0,0c0.1,0,0.2,0,0.4,0c0.1,0,0.2,0,0.4,0l0,0
          c0.8,0,1.6-0.4,2.3-0.9c0.1,0,0.1-0.1,0.3-0.2l16.5-16.5c0.1,0.4,0.3,0.8,0.3,1.2c0,0.1,0,0.2,0,0.4
          C317.3,410,317.4,410.1,317.4,410.2z"/>
        <path class="st0" d="M281.3,432.5h6.5c0.4,0,0.7-0.3,0.7-0.7c0-0.4-0.3-0.7-0.7-0.7h-6.5c-0.4,0-0.7,0.3-0.7,0.7
          C280.6,432.2,280.9,432.5,281.3,432.5z"/>
      </g>
    </symbol>

    <symbol id="shapeSmallArrow" viewBox="288.6 416.9 18 8">
      <path class="st0" d="M305.4,421.4L305.4,421.4l-2.5,2.3l0,0c-0.2,0.1-0.3,0.2-0.5,0.2c-0.4,0-0.7-0.3-0.7-0.7c0-0.2,0.1-0.4,0.2-0.6
l0,0l1.1-1h-4.5l0,0h-1.5l0,0h-1.7h-4.8c-0.4,0-0.7-0.3-0.7-0.7c0-0.4,0.3-0.7,0.7-0.7h1.9l0,0h3.8l0,0h3.2l0,0h3.5l-1.1-1l0,0
c-0.2-0.2-0.2-0.3-0.2-0.6c0-0.4,0.3-0.7,0.7-0.7c0.2,0,0.3,0.1,0.5,0.2l0,0l2.5,2.3l0,0c0.2,0.2,0.2,0.3,0.2,0.6
C305.6,421.1,305.5,421.3,305.4,421.4z"/>
    </symbol>

    <symbol id="shapeLongArrow" viewBox="288.1 406.4 19 29">
      <g>
        <polygon class="st0" points="297.6,433.9 289.1,425.4 290.6,424 297.6,431 304.6,424 306,425.4  "/>
        <rect x="296.6" y="407.4" class="st0" width="2" height="23.9"/>
      </g>
    </symbol>

    <symbol id="shapeLink" viewBox="279.1 402.4 37 37">
      <g>
        <g>
          <path class="st0" d="M294.2,424.4c-3.7-3.7-3.7-9.7,0-13.5l1.4,1.4c-2.9,3-2.9,7.8,0,10.7L294.2,424.4z"/>
          <path class="st1" d="M307.1,423.7"/>
          <path class="st0" d="M307.8,424.4l-1.4-1.4l4.1-4.1c2.9-2.9,2.9-7.7,0-10.7c-3-2.9-7.8-2.9-10.7,0l-4.1,4.1l-1.4-1.4l4.1-4.1
            c3.7-3.7,9.7-3.7,13.5,0c3.7,3.8,3.7,9.9,0,13.6L307.8,424.4z"/>
        </g>
        <g>
          <path class="st0" d="M301,431.1l-1.4-1.4c2.9-3,2.9-7.8,0-10.7l1.4-1.4C304.6,421.2,304.6,427.3,301,431.1z"/>
          <path class="st1" d="M288.2,418.2"/>
          <path class="st0" d="M290.1,437.9c-2.5,0-4.9-0.9-6.7-2.8c-3.7-3.8-3.7-9.9,0-13.5l4.1-4.1l1.4,1.4l-4.1,4.1
            c-2.9,2.9-2.9,7.7,0,10.7c2.9,2.9,7.7,2.9,10.7,0l4.1-4.1l1.4,1.4l-4.1,4.1C295,437,292.6,437.9,290.1,437.9z"/>
        </g>
      </g>
    </symbol>

    <symbol id="shapeGoogle" viewBox="285.1 409.9 25 22">
      <path id="google_plus_2_" class="st0" d="M305.6,416v3.5h-1.4V416h-3.6v-1.4h3.6V411h1.4v3.5h3.6v1.4H305.6L305.6,416z M295.6,412.4
c1.3,0.7,2,1.9,2,3.4c0,1.3-0.8,2.3-1.8,3c-1,0.8-1.2,1.1-1.2,1.7c0,0.5,1.1,1.5,1.6,1.9c1.6,1.1,2.1,2.2,2.1,3.9
c0,2.2-2.1,4.6-5.9,4.6c-3.4,0-6.3-1.6-6.3-3.8c0-2.2,2.7-4.3,6.1-4.3c0.4,0,0.7,0,1.1,0c-0.5-0.4-0.8-1-0.8-1.7
c0-0.4,0.1-0.8,0.3-1.2c-0.2,0-0.4,0-0.6,0c-2.8,0-4.6-2-4.6-4.4c0-2.4,2.6-4.5,5.3-4.5c1.5,0,6.1,0,6.1,0l-1.4,1.4L295.6,412.4
L295.6,412.4L295.6,412.4z M292.8,423.4c-2.4,0-4.4,1.4-4.4,3.1c0,1.7,1.7,3,4.1,3c3.3,0,4.4-1.2,4.4-2.9c0-0.2,0-0.4-0.1-0.6
c-0.2-1-1.2-1.5-2.5-2.4C293.8,423.4,293.3,423.4,292.8,423.4z M295.4,415.8c-0.3-2-1.8-3.7-3.4-3.7c-1.6,0-2.7,1.5-2.4,3.6
s1.8,3.7,3.3,3.8C294.6,419.4,295.7,417.8,295.4,415.8z"/>
    </symbol>

    <symbol id="shapeFacebook" viewBox="291.6 409.9 12 22">
      <path id="facebook_4_" class="st0" d="M302,410.9c0,1.1,0,3.2,0,3.2s-2.4-0.2-3,0.7c-0.3,0.5-0.1,2-0.1,3c1,0,2.1,0,3.1,0
c-0.3,1.2-0.5,2-0.7,3.1c-0.9,0-2.5,0-2.5,0v10c0,0-3,0-4.4,0c0-3.1,0-6.7,0-10c-0.7,0-1.2,0-1.9,0c0-1.1,0-2,0-3.1
c0.7,0,1.2,0,1.9,0c0.1-2.3,0.1-4.6,1.3-5.8C297.1,410.7,298.3,410.9,302,410.9z"/>
    </symbol>
    
    <symbol id="shapeLinkedin" viewBox="286.1 409.9 23 22">
      <path id="linkedin_2_" class="st0" d="M303.5,430.9v-7.3c0-1.5-0.4-3-2.2-3s-2.5,1.5-2.5,3v7.3h-4.7v-13.3h4.7v1.8
c1.2-1.6,2.3-2.2,4.2-2.2c2,0,5.1,0.9,5.1,6.2v7.5H303.5z M289.8,415.7c-1.4,0-2.6-1-2.6-2.3c0-1.3,1.2-2.4,2.6-2.4s2.6,1,2.6,2.3
C292.4,414.6,291.2,415.7,289.8,415.7z M292.1,430.9h-4.7v-13.3h4.7L292.1,430.9L292.1,430.9z"/>
    </symbol>

    <symbol id="shapeTwitter" viewBox="13.7 9.6 26.6 22">
      <path class="st0" d="M39.3,12.9c-0.9,0.4-1.9,0.7-2.9,0.8c1-0.6,1.9-1.6,2.2-2.8c-1,0.6-2,1-3.2,1.2c-0.9-1-2.2-1.6-3.7-1.6
c-2.8,0-5,2.2-5,5c0,0.4,0,0.8,0.1,1.1c-4.2-0.2-7.9-2.2-10.4-5.3c-0.4,0.8-0.7,1.6-0.7,2.5c0,1.8,0.9,3.3,2.2,4.2
c-0.8,0-1.6-0.2-2.3-0.6v0c0,2.4,1.8,4.5,4,5c-0.4,0.1-0.9,0.2-1.3,0.2c-0.3,0-0.6,0-1-0.1c0.7,2,2.5,3.5,4.7,3.5
c-1.7,1.3-3.9,2.1-6.3,2.1c-0.4,0-0.8,0-1.2,0c2.2,1.4,4.9,2.3,7.8,2.3c9.3,0,14.4-7.7,14.4-14.4c0-0.2,0-0.4,0-0.7
C37.8,14.8,38.6,13.9,39.3,12.9z"/>
    </symbol>

    <symbol id="shapeSkill1" viewBox="-0.1 10.1 124 124">
      <g>
        <path class="st0" d="M81.6,133.3H0.9V124c0-5.5,3.4-10.1,8.8-12.1l20.2-7.4V94.3h2v11.6l-21.5,7.8c-4.7,1.7-7.5,5.5-7.5,10.2v7.3
          h76.7V124c0-4.5-3.1-8.5-7.8-10.2L50.6,106V93.3h2v11.3l19.8,7.3c5.6,1.9,9.2,6.7,9.2,12.1V133.3z"/>
        <path class="st0" d="M40.4,98.1c-11.9,0-21.6-11.5-21.6-25.7s9.7-25.7,21.6-25.7c11.9,0,21.6,11.5,21.6,25.7S52.4,98.1,40.4,98.1z
           M40.4,48.7c-10.8,0-19.6,10.6-19.6,23.7c0,13.1,8.8,23.7,19.6,23.7s19.6-10.6,19.6-23.7C60.1,59.3,51.3,48.7,40.4,48.7z"/>
        <polygon class="st0" points="83.8,81 83.8,58.7 74.3,58.7 74.3,56.7 85.8,56.7 85.8,75.8 102.8,56.7 120.9,56.7 120.9,13.2 
          44.2,13.2 44.2,32.8 42.2,32.8 42.2,11.2 122.9,11.2 122.9,58.7 103.7,58.7  "/>
        <polygon class="st0" points="74.3,34.9 70.2,34.9 70.2,39.1 74.3,39.1  "/>
        <polygon class="st0" points="86.7,34.9 82.6,34.9 82.6,39.1 86.7,39.1  "/>
        <polygon class="st0" points="99.2,34.9 95,34.9 95,39.1 99.2,39.1  "/>
      </g>
    </symbol>

    <symbol id="shapeSkill2" viewBox="0.2 0 97.1 124.7">
      <g>
        <path class="st0" d="M80.3,94h-6.2c-0.6,0-1-0.4-1-1s0.4-1,1-1h6.2c8,0,13.5-5.6,13.5-13.5c0-8-5.6-13.5-13.5-13.5h-6.2
          c-0.6,0-1-0.4-1-1s0.4-1,1-1h6.2c9,0,15.5,6.5,15.5,15.5C95.8,87.7,89.4,94,80.3,94z"/>
        <path class="st0" d="M63.8,122.9H18.3C12,122.9,7,118,7,111.6V55.7c0-0.6,0.4-1,1-1h66.2c0.6,0,1,0.4,1,1v55.9c0,0.2,0,0.3-0.1,0.4
          C74.9,118.3,70.1,122.9,63.8,122.9z M9,56.7v54.9c0,5.2,4.1,9.3,9.3,9.3h45.5c5.4,0,9.3-3.9,9.3-9.3c0-0.2,0-0.3,0.1-0.4V56.7H9z"
          />
        <path class="st0" d="M79.6,32.4C79.6,32.4,79.6,32.4,79.6,32.4c-1.4,0-2.9-0.3-4.4-0.9c-5.3-2.3-7.3-7.3-5.1-12.4
          c0.5-1.4,1.6-2.7,2.6-4c2.6-3.4,5.4-6.9,1.9-12.2c-0.2-0.3-0.2-0.8,0-1.1c0.2-0.3,0.7-0.5,1.1-0.4c10.9,2.6,14.8,12.3,13.9,20.2
          C88.7,28,84.7,32.4,79.6,32.4z M77.4,3.9c2.3,5.3-0.7,9.2-3.2,12.3c-1,1.3-1.9,2.5-2.4,3.6c-1.8,4.2-0.2,8,4.1,9.8
          c1.3,0.5,2.5,0.8,3.6,0.8c4.7,0,7.4-4.6,7.9-9.2C88.3,14.8,85.4,7,77.4,3.9z"/>
        <path class="st0" d="M59.5,56.7c-0.2,0-0.3,0-0.5-0.1c-0.5-0.3-0.7-0.9-0.4-1.4L73,29c0.3-0.5,0.9-0.7,1.4-0.4
          c0.5,0.3,0.7,0.9,0.4,1.4L60.4,56.2C60.2,56.5,59.8,56.7,59.5,56.7z"/>
        <path class="st0" d="M70.2,56.7c-0.1,0-0.2,0-0.4-0.1c-0.5-0.2-0.8-0.8-0.6-1.3l9.2-24.3c0.2-0.5,0.8-0.8,1.3-0.6
          c0.5,0.2,0.8,0.8,0.6,1.3l-9.2,24.3C71,56.5,70.6,56.7,70.2,56.7z"/>
        <path class="st0" d="M28.6,56.7C28.6,56.7,28.6,56.7,28.6,56.7H12.1c-0.4,0-0.7-0.2-0.9-0.6L2.9,39.6c-0.1-0.1-0.1-0.2-0.1-0.3
          L0.7,22.7c0-0.4,0.1-0.7,0.4-1c0.3-0.2,0.7-0.2,1.1,0L16.7,30c0.2,0.1,0.3,0.2,0.4,0.4l12.3,24.6c0.1,0.2,0.2,0.4,0.2,0.6
          C29.6,56.3,29.2,56.7,28.6,56.7z M12.7,54.7H27L15.4,31.6L2.9,24.5l1.8,14.3L12.7,54.7z"/>
        <path class="st0" d="M3.8,40.1c-0.3,0-0.6-0.2-0.8-0.4c-0.3-0.5-0.2-1.1,0.3-1.4l12.4-8.2c0.5-0.3,1.1-0.2,1.4,0.3
          c0.3,0.5,0.2,1.1-0.3,1.4L4.3,39.9C4.2,40.1,4,40.1,3.8,40.1z"/>
        <path class="st0" d="M57.6,56.7H32.8c-0.6,0-1-0.4-1-1V1.9c0-0.6,0.4-1,1-1h24.8c0.6,0,1,0.4,1,1v53.8
          C58.6,56.3,58.1,56.7,57.6,56.7z M33.8,54.7h22.8V2.9H33.8V54.7z"/>
        <path class="st0" d="M57.6,15.3H45.2c-0.6,0-1-0.4-1-1s0.4-1,1-1h12.4c0.6,0,1,0.4,1,1S58.1,15.3,57.6,15.3z"/>
        <path class="st0" d="M57.6,23.6h-8.3c-0.6,0-1-0.4-1-1s0.4-1,1-1h8.3c0.6,0,1,0.4,1,1S58.1,23.6,57.6,23.6z"/>
        <path class="st0" d="M57.6,31.9H45.2c-0.6,0-1-0.4-1-1s0.4-1,1-1h12.4c0.6,0,1,0.4,1,1S58.1,31.9,57.6,31.9z"/>
        <path class="st0" d="M57.6,44.3h-8.3c-0.6,0-1-0.4-1-1s0.4-1,1-1h8.3c0.6,0,1,0.4,1,1S58.1,44.3,57.6,44.3z"/>
      </g>
    </symbol>

    <symbol id="shapeSkill3" viewBox="0.3 0.4 124 95">
      <g>
        <path class="st0" d="M112,94.4H12.6c-6.2,0-11.3-5.1-11.3-11.3V12.7c0-6.1,5.2-11.3,11.3-11.3h99.3c6.2,0,11.3,5.1,11.3,11.3v70
          c0.1,0.1,0.1,0.3,0.1,0.4C123.3,89.3,118.2,94.4,112,94.4z M12.6,3.4c-5,0-9.3,4.3-9.3,9.3v70.4c0,5.1,4.2,9.3,9.3,9.3H112
          c5,0,9.1-4,9.3-8.9c-0.1-0.1-0.1-0.2-0.1-0.4V12.7c0-5.1-4.2-9.3-9.3-9.3H12.6z"/>
        <path class="st0" d="M122.3,24.1H2.3c-0.6,0-1-0.4-1-1s0.4-1,1-1h120c0.6,0,1,0.4,1,1S122.9,24.1,122.3,24.1z"/>
        <g>
          <circle class="st0" cx="16.8" cy="12.7" r="2.1"/>
          <path class="st0" d="M16.8,15.8c-1.7,0-3.1-1.4-3.1-3.1s1.4-3.1,3.1-3.1s3.1,1.4,3.1,3.1S18.5,15.8,16.8,15.8z M16.8,11.6
            c-0.6,0-1.1,0.5-1.1,1.1c0,0.6,0.5,1.1,1.1,1.1c0.6,0,1.1-0.5,1.1-1.1C17.9,12.1,17.4,11.6,16.8,11.6z"/>
        </g>
        <g>
          <circle class="st0" cx="29.2" cy="12.7" r="2.1"/>
          <path class="st0" d="M29.2,15.8c-1.7,0-3.1-1.4-3.1-3.1s1.4-3.1,3.1-3.1s3.1,1.4,3.1,3.1S30.9,15.8,29.2,15.8z M29.2,11.6
            c-0.6,0-1.1,0.5-1.1,1.1c0,0.6,0.5,1.1,1.1,1.1s1.1-0.5,1.1-1.1C30.3,12.1,29.8,11.6,29.2,11.6z"/>
        </g>
        <g>
          <circle class="st0" cx="41.6" cy="12.7" r="2.1"/>
          <path class="st0" d="M41.6,15.8c-1.7,0-3.1-1.4-3.1-3.1s1.4-3.1,3.1-3.1s3.1,1.4,3.1,3.1S43.3,15.8,41.6,15.8z M41.6,11.6
            c-0.6,0-1.1,0.5-1.1,1.1c0,0.6,0.5,1.1,1.1,1.1s1.1-0.5,1.1-1.1C42.7,12.1,42.2,11.6,41.6,11.6z"/>
        </g>
      </g>
    </symbol>
  </svg>
